<svg height="475.506" viewBox="0 0 475.505 475.506" width="475.505"
    xmlns="http://www.w3.org/2000/svg">
    <g transform="translate(-24.118 0.001)">
        <path
            d="M307.255,424.538,259.19,472.6l2.9,2.9L384.755,352.841l.274-.275L499.623,237.973l-2.9-2.9-39.995,39.995Z" />
        <rect height="4.103" transform="translate(242.616 456.029) rotate(-45)" width="335.921" />
        <rect height="4.923" transform="translate(225.75 439.163) rotate(-45)" width="335.921" />
        <rect height="5.744" transform="translate(208.884 422.298) rotate(-45)" width="335.921" />
        <rect height="6.564" transform="translate(192.019 405.431) rotate(-45)" width="335.921" />
        <rect height="7.385" transform="translate(175.153 388.565) rotate(-45)" width="335.921" />
        <rect height="8.205" transform="translate(158.288 371.7) rotate(-45)" width="335.921" />
        <rect height="9.026" transform="translate(141.422 354.835) rotate(-45)" width="335.921" />
        <rect height="9.846" transform="translate(124.556 337.969) rotate(-45)" width="335.921" />
        <rect height="10.667" transform="translate(107.69 321.103) rotate(-45)" width="335.921" />
        <rect height="11.487" transform="translate(90.824 304.238) rotate(-45)" width="335.921" />
        <rect height="12.308" transform="translate(73.959 287.372) rotate(-45)" width="335.921" />
        <rect height="13.128" transform="translate(57.093 270.507) rotate(-45)" width="335.921" />
        <rect height="13.949" transform="translate(40.227 253.641) rotate(-45)" width="335.921" />
        <rect height="13.698" transform="translate(24.118 237.532) rotate(-45)" width="335.921" />
    </g>
</svg>
