<svg height="475.506" viewBox="0 0 475.505 475.506" width="475.505"
    xmlns="http://www.w3.org/2000/svg">
    <g data-name="Group 11" id="Group_11" transform="translate(-24.118 0.001)">
        <g data-name="Group 9" id="Group_9">
            <path
                d="M307.255,424.538,259.19,472.6l2.9,2.9L384.755,352.841l.274-.275L499.623,237.973l-2.9-2.9-39.995,39.995Z"
                data-name="Path 47" id="Path_47" />
            <rect data-name="Rectangle 57" height="4.103" id="Rectangle_57"
                transform="translate(242.616 456.029) rotate(-45)" width="335.921" />
            <rect data-name="Rectangle 58" height="4.923" id="Rectangle_58"
                transform="translate(225.75 439.163) rotate(-45)" width="335.921" />
            <rect data-name="Rectangle 59" height="5.744" id="Rectangle_59"
                transform="translate(208.884 422.298) rotate(-45)" width="335.921" />
            <rect data-name="Rectangle 60" height="6.564" id="Rectangle_60"
                transform="translate(192.019 405.431) rotate(-45)" width="335.921" />
            <rect data-name="Rectangle 61" height="7.385" id="Rectangle_61"
                transform="translate(175.153 388.565) rotate(-45)" width="335.921" />
            <rect data-name="Rectangle 62" height="8.205" id="Rectangle_62"
                transform="translate(158.288 371.7) rotate(-45)" width="335.921" />
            <rect data-name="Rectangle 63" height="9.026" id="Rectangle_63"
                transform="translate(141.422 354.835) rotate(-45)" width="335.921" />
            <rect data-name="Rectangle 64" height="9.846" id="Rectangle_64"
                transform="translate(124.556 337.969) rotate(-45)" width="335.921" />
            <rect data-name="Rectangle 65" height="10.667" id="Rectangle_65"
                transform="translate(107.69 321.103) rotate(-45)" width="335.921" />
            <rect data-name="Rectangle 66" height="11.487" id="Rectangle_66"
                transform="translate(90.824 304.238) rotate(-45)" width="335.921" />
            <rect data-name="Rectangle 67" height="12.308" id="Rectangle_67"
                transform="translate(73.959 287.372) rotate(-45)" width="335.921" />
            <rect data-name="Rectangle 68" height="13.128" id="Rectangle_68"
                transform="translate(57.093 270.507) rotate(-45)" width="335.921" />
            <rect data-name="Rectangle 69" height="13.949" id="Rectangle_69"
                transform="translate(40.227 253.641) rotate(-45)" width="335.921" />
            <rect data-name="Rectangle 70" height="13.698" id="Rectangle_70"
                transform="translate(24.118 237.532) rotate(-45)" width="335.921" />
        </g>
        <g data-name="Group 10" id="Group_10">
            <path d="M261.65,0,33.8,247.218,271.336,9.686Z" data-name="Path 48" fill="#b70000"
                id="Path_48" />
            <path d="M277.759,16.109,50.09,263.5,287.622,25.972Z" data-name="Path 49" fill="#b70000"
                id="Path_49" />
            <path d="M294.624,32.974,66.375,279.789,303.907,42.257Z" data-name="Path 50"
                fill="#b70000" id="Path_50" />
            <path d="M311.49,49.84,82.661,296.075,320.193,58.543Z" data-name="Path 51"
                fill="#b70000" id="Path_51" />
            <path d="M328.355,66.705,98.946,312.36,336.478,74.828Z" data-name="Path 52"
                fill="#b70000" id="Path_52" />
            <path d="M345.221,83.571,115.232,328.645,352.764,91.114Z" data-name="Path 53"
                fill="#b70000" id="Path_53" />
            <path d="M362.087,100.437,131.517,344.931,369.049,107.4Z" data-name="Path 54"
                fill="#b70000" id="Path_54" />
            <path d="M378.952,117.3,147.8,361.216,385.334,123.684Z" data-name="Path 55"
                fill="#b70000" id="Path_55" />
            <path d="M395.818,134.168,164.088,377.5,401.62,139.97Z" data-name="Path 56"
                fill="#b70000" id="Path_56" />
            <path d="M412.684,151.034,180.373,393.787,417.9,156.255Z" data-name="Path 57"
                fill="#b70000" id="Path_57" />
            <path d="M429.549,167.9,196.659,410.073,434.191,172.541Z" data-name="Path 58"
                fill="#b70000" id="Path_58" />
            <path d="M446.415,184.765,212.944,426.358,450.476,188.826Z" data-name="Path 59"
                fill="#b70000" id="Path_59" />
            <path d="M463.281,201.631,229.23,442.644,466.762,205.112Z" data-name="Path 60"
                fill="#b70000" id="Path_60" />
            <path d="M480.146,218.5,245.515,458.929,483.047,221.4Z" data-name="Path 61"
                fill="#b70000" id="Path_61" />
            <path d="M496.722,235.072,262.091,475.505,499.623,237.973Z" data-name="Path 62"
                fill="#b70000" id="Path_62" />
        </g>
    </g>
</svg>
