<svg height="103.249" viewBox="0 0 523.741 103.249" width="523.741"
    xmlns="http://www.w3.org/2000/svg">
    <g transform="translate(0 -507.259)">
        <path
            d="M0,557.832c0,31.515,16.958,50.425,45.172,50.425h71.884V592.649H48.773c-19.659,0-31.965-13.356-31.965-34.817s12.306-34.967,31.965-34.967h68.283V507.259H45.172C16.958,507.259,0,526.317,0,557.832Z" />
        <path
            d="M235.36,561.435c0,21.91-8.4,33.466-33.017,33.466H185.385c-24.611,0-32.565-11.556-32.565-33.466V507.259H135.561v55.225c0,31.366,15.608,48.024,50.874,48.024h15.308c35.267,0,50.875-16.508,50.875-48.024V507.259H235.36Z" />
        <path
            d="M523.741,522.865V507.259H406.684v101H523.741V592.649h-99.8V553.931h99.8V538.324h-99.8V522.865Z" />
        <path
            d="M385.928,530.369a23.111,23.111,0,0,0-23.11-23.11H268.871v101h89.143c20.861,0,32.417-13.056,32.417-34.967a44.389,44.389,0,0,0-2.024-13.666,47.772,47.772,0,0,1-2.479-14.679Zm-99.8-7.5h73.836c6,0,9.154,2.4,9.154,7.8s-3,7.654-9.154,7.654H286.13Zm70.684,69.784H286.13V553.931h71.434c10.8,0,16.058,7.054,16.058,19.359,0,12.61-6.3,19.359-16.808,19.359Z" />
    </g>
</svg>
